<?xml version="1.0" encoding="utf-8"?>
<svg version="1.1" x="0px" y="0px" viewBox="0 0 741.2 876" enable-background="new 0 0 1000 1000" width="10.957pt" height="13pt" xmlns="http://www.w3.org/2000/svg">
  <path d="M 481.7 145.837 C 476.1 145.837 471.2 147.837 467.2 151.837 C 463.2 155.937 461.2 160.737 461.2 166.337 C 461.2 171.937 463.2 176.737 467.2 180.837 C 471.2 184.937 476.1 186.937 481.7 186.937 C 487.3 186.937 492 184.937 495.9 180.837 C 499.8 176.837 501.7 172.037 501.7 166.337 C 501.7 160.737 499.8 155.937 495.9 151.837 C 492.1 147.837 487.3 145.837 481.7 145.837 Z M 259.6 145.837 C 254 145.837 249.2 147.837 245.4 151.837 C 241.5 155.937 239.6 160.737 239.6 166.337 C 239.6 171.937 241.5 176.737 245.4 180.837 C 249.3 184.937 254 186.937 259.6 186.937 C 265.2 186.937 270 184.937 274.1 180.837 C 278.1 176.837 280.1 172.037 280.1 166.337 C 280.1 160.737 278.1 155.937 274.1 151.837 C 270 147.837 265.2 145.837 259.6 145.837 Z M 595.5 685.437 C 584.3 696.637 570.8 702.237 555 702.237 L 515.5 702.237 L 515.5 821.737 C 515.5 836.837 510.2 849.637 499.7 860.137 C 489.2 870.637 476.4 875.937 461.3 875.937 C 446.2 875.937 433.4 870.637 422.9 860.137 C 412.4 849.637 407.1 836.837 407.1 821.737 L 407.1 702.337 L 334.4 702.337 L 334.4 821.837 C 334.4 836.937 329.1 849.737 318.6 860.237 C 308.1 870.737 295.3 876.037 280.2 876.037 C 265.5 876.037 252.8 870.737 242.3 860.237 C 231.8 849.737 226.5 836.937 226.5 821.837 L 225.9 702.337 L 186.9 702.337 C 170.8 702.337 157.1 696.737 145.8 685.537 C 134.6 674.337 129 660.637 129 644.437 L 129 293.737 L 612.3 293.737 L 612.3 644.337 C 612.3 660.537 606.7 674.137 595.5 685.437 Z M 633.3 337.437 C 633.3 322.337 638.6 309.637 649.1 299.237 C 659.6 288.937 672.3 283.737 687 283.737 C 702.1 283.737 714.9 288.937 725.4 299.237 C 735.9 309.637 741.2 322.337 741.2 337.437 L 741.2 563.837 C 741.2 578.937 735.9 591.737 725.4 602.237 C 714.9 612.737 702.1 618.037 687 618.037 C 672.3 618.037 659.6 612.737 649.1 602.237 C 638.6 591.737 633.3 578.937 633.3 563.837 Z M 160.6 161.337 C 183.1 126.737 213.2 99.837 251.1 80.537 L 213.7 11.537 C 211.2 6.937 212.1 3.437 216.3 1.037 C 220.9 -1.063 224.4 0.037 226.8 4.237 L 264.7 73.737 C 298 59.037 333.3 51.637 370.5 51.637 C 407.7 51.637 443 59.037 476.3 73.737 L 514.2 4.237 C 516.7 0.037 520.2 -1.063 524.7 1.037 C 528.9 3.537 529.8 7.037 527.3 11.537 L 489.9 80.537 C 527.4 99.837 557.5 126.737 579.9 161.337 C 602.4 195.937 613.6 233.737 613.6 274.837 L 126.9 274.837 C 126.9 233.737 138.1 195.937 160.6 161.337 Z M 15.8 299.537 C 26.3 289.037 39.1 283.737 54.2 283.737 C 68.9 283.737 81.6 289.037 92.1 299.537 C 102.6 310.037 107.9 322.737 107.9 337.437 L 107.9 563.837 C 107.9 578.937 102.7 591.737 92.4 602.237 C 82 612.737 69.3 618.037 54.2 618.037 C 39.1 618.037 26.3 612.737 15.8 602.237 C 5.3 591.737 0 578.937 0 563.837 L 0 337.437 C 0 322.737 5.3 310.037 15.8 299.537 Z" style="fill: rgb(255, 255, 255);"/>
</svg>