<?xml version="1.0" encoding="utf-8"?>
<svg viewBox="0 0 1664 1408" id="svg3001" version="1.1" width="13pt" height="10.986pt" xmlns="http://www.w3.org/2000/svg">
  <path d="M 1339 551 C 1350.333 578.333 1345.667 601.667 1325 621 L 877 1069 C 865 1081.667 850 1088 832 1088 C 814 1088 799 1081.667 787 1069 L 339 621 C 318.333 601.667 313.667 578.333 325 551 C 336.333 525 356 512 384 512 L 640 512 L 640 64 C 640 46.667 646.333 31.667 659 19 C 671.667 6.333 686.667 0 704 0 L 960 0 C 977.333 0 992.333 6.333 1005 19 C 1017.667 31.667 1024 46.667 1024 64 L 1024 512 L 1280 512 C 1308 512 1327.667 525 1339 551 Z M 1632 768 C 1641.333 768 1649 771 1655 777 C 1661 783 1664 790.667 1664 800 L 1664 1376 C 1664 1385.333 1661 1393 1655 1399 C 1649 1405 1641.333 1408 1632 1408 L 32 1408 C 22.667 1408 15 1405 9 1399 C 3 1393 0 1385.333 0 1376 L 0 800 C 0 790.667 3 783 9 777 C 15 771 22.667 768 32 768 L 224 768 C 233.333 768 241 771 247 777 C 253 783 256 790.667 256 800 L 256 1152 L 1408 1152 L 1408 800 C 1408 790.667 1411 783 1417 777 C 1423 771 1430.667 768 1440 768 L 1632 768 Z" id="path3005" style="fill: rgb(255, 255, 255);"/>
</svg>