<?xml version="1.0" encoding="utf-8"?>
<svg version="1.1" x="0px" y="0px" viewBox="0 0 1000 1000" enable-background="new 0 0 1000 1000" width="11pt" height="11pt" xmlns="http://www.w3.org/2000/svg">
  <path d="M 567.22 991.991 C 496.1 985.431 422.01 956.831 367.97 915.511 C 350.09 901.801 320.49 872.601 305.59 854.331 C 222.36 750.831 198.92 598.271 246.79 469.941 C 254.74 448.681 270.43 416.701 280.56 400.811 L 287.31 390.281 L 243.01 344.791 C 218.58 319.761 158.78 258.771 110.11 209.311 C 8.02 105.411 10 108.001 10 77.601 C 10 62.501 10.79 57.931 15.36 48.401 C 34.03 8.271 83.5 -6.029 119.85 18.011 C 124.22 20.791 186.4 82.971 258.11 155.871 L 388.43 288.771 L 410.48 276.261 C 447.63 255.001 492.92 239.111 540.4 230.571 C 568.61 225.411 624.63 224.411 655.82 228.391 C 838.58 251.631 969.29 385.521 988.56 569.281 C 991.54 598.681 989.75 648.941 984.59 678.541 C 966.71 780.251 914.27 865.071 832.42 923.871 C 810.17 939.961 761.9 964.201 733.69 973.531 C 681.25 990.601 622.25 997.161 567.22 991.991 Z M 661.98 900.021 C 727.93 885.321 787.92 848.371 832.23 795.331 C 893.41 722.031 915.46 631.641 893.81 543.841 C 882.88 499.141 862.82 460.601 831.23 422.861 C 779.18 360.881 707.87 322.541 630.39 314.791 C 549.34 306.841 464.72 338.831 401.35 401.401 C 374.13 428.421 357.25 451.661 340.76 484.831 C 317.32 531.911 309.97 566.281 311.76 618.921 C 312.75 652.891 315.34 668.381 324.28 695.401 C 339.38 741.881 366 783.201 403.54 819.761 C 450.62 865.051 500.68 890.881 563.25 902.201 C 583.31 905.781 642.31 904.591 661.98 900.021 Z" transform="matrix(-1, 0, 0, -1, 999.99942, 1000.000626)" style="fill: rgb(255, 255, 255);"/>
</svg>