<?xml version="1.0" encoding="utf-8"?>
<svg viewBox="0 0 1536 1536" id="svg3001" version="1.1" width="12pt" height="12pt" xmlns="http://www.w3.org/2000/svg">
  <g transform="matrix(1, 0, 0, -1, 0, 1408)" id="g3003">
    <path d="m 1024,160 v 64 q 0,14 -9,23 -9,9 -23,9 h -96 v 480 q 0,14 -9,23 -9,9 -23,9 H 544 q -14,0 -23,-9 -9,-9 -9,-23 v -64 q 0,-14 9,-23 9,-9 23,-9 h 96 V 256 h -96 q -14,0 -23,-9 -9,-9 -9,-23 v -64 q 0,-14 9,-23 9,-9 23,-9 h 448 q 14,0 23,9 9,9 9,23 z M 896,928 v 192 q 0,14 -9,23 -9,9 -23,9 H 672 q -14,0 -23,-9 -9,-9 -9,-23 V 928 q 0,-14 9,-23 9,-9 23,-9 h 192 q 14,0 23,9 9,9 9,23 z M 1536,640 Q 1536,431 1433,254.5 1330,78 1153.5,-25 977,-128 768,-128 559,-128 382.5,-25 206,78 103,254.5 0,431 0,640 0,849 103,1025.5 206,1202 382.5,1305 559,1408 768,1408 977,1408 1153.5,1305 1330,1202 1433,1025.5 1536,849 1536,640 z" id="path3005" style="fill: rgb(255, 255, 255);"/>
  </g>
</svg>