<?xml version="1.0" encoding="utf-8"?>
<svg version="1.1" x="0px" y="0px" viewBox="0 0 1000 1000" enable-background="new 0 0 1000 1000" width="18px" height="18px" xmlns="http://www.w3.org/2000/svg">
  <g>
    <path d="M 928.8 10 L 71.3 10 C 37.6 10 10 37.6 10 71.2 L 10 928.7 C 10 962.4 37.6 990 71.3 990 L 543.9 990 C 543.9 990 544 990 544 990 C 544 990 544.1 990 544.1 990 L 928.7 990 C 962.4 990 990 962.4 990 928.7 L 990 71.2 C 990 37.6 962.4 10 928.8 10 Z M 193.8 224.4 C 193.8 207.5 207.5 193.8 224.4 193.8 C 241.3 193.8 255 207.5 255 224.4 L 255 285.7 C 255 302.6 241.3 316.3 224.4 316.3 C 207.5 316.3 193.8 302.6 193.8 285.7 L 193.8 224.4 Z M 928.8 928.7 L 569.8 928.7 C 563.4 888.4 559.4 846.9 557 806.6 C 557 806.7 557 806.8 557 806.9 C 538.1 809 519.1 810 500 810 C 372.1 810 248.9 763.4 153.1 678.9 C 138.8 666.3 137.5 644.5 150.1 630.3 C 162.7 616 184.5 614.7 198.7 627.3 C 281.9 700.7 388.9 741.2 500 741.2 C 518.3 741.2 536.4 740.1 554.4 737.9 C 552.3 624.8 561 535.1 561.1 533.7 C 562 525.1 559.1 516.5 553.3 510.1 C 547.5 503.7 539.2 500 530.6 500 L 439.5 500 C 440.8 466.9 444.4 410.2 453.8 346.7 C 471.9 225.4 503.6 130.6 545.8 71.3 L 928.7 71.3 L 928.7 928.7 Z" style="fill: rgb(255, 255, 255);"/>
    <path d="M 775.6 316.2 C 758.7 316.2 745 302.5 745 285.6 L 745 224.3 C 745 207.4 758.7 193.7 775.6 193.7 C 792.5 193.7 806.2 207.4 806.2 224.3 L 806.2 285.6 C 806.3 302.5 792.5 316.2 775.6 316.2 Z" style="fill: rgb(255, 255, 255);"/>
    <path d="M 849.9 630.3 C 837.3 616 815.5 614.7 801.3 627.3 C 731.8 688.7 645.6 727 554.4 737.9 C 554.8 760.2 555.6 783.4 557 807 C 664.1 795.3 765.4 750.9 846.9 679 C 861.2 666.4 862.5 644.6 849.9 630.3 Z" style="fill: rgb(255, 255, 255);"/>
  </g>
</svg>