<?xml version="1.0" encoding="utf-8"?>
<svg version="1.1" x="0px" y="0px" viewBox="0 0 553 920" enable-background="new 0 0 1000 1000" width="8.4pt" height="14pt" xmlns="http://www.w3.org/2000/svg">
  <path d="M 466.6 0 L 86.4 0 C 38.9 0 0 38.9 0 86.4 L 0 833.709 C 0 881.209 38.9 920.109 86.4 920.109 L 466.6 920.109 C 514.1 920.109 553 881.209 553 833.709 L 553 86.4 C 553 38.9 514.1 0 466.6 0 Z M 276.5 876.464 C 247.8 876.464 224.6 853.264 224.6 824.664 C 224.6 796.064 247.8 772.764 276.5 772.764 C 305.2 772.764 328.4 796.064 328.4 824.664 C 328.4 853.264 305.2 876.464 276.5 876.464 Z M 472.874 734.799 L 81.589 734.799 L 81.589 139.3 L 472.974 139.3 L 472.974 734.799 L 472.874 734.799 Z" style="fill: rgb(255, 255, 255);"/>
</svg>