<?xml version="1.0" encoding="utf-8"?>
<svg version="1.1" x="0px" y="0px" viewBox="0 0 1000 1000" enable-background="new 0 0 1000 1000" width="12pt" height="12pt" xmlns="http://www.w3.org/2000/svg">
  <g>
    <path d="M807.3,561.2c-28.9,143.3-156.1,247.4-302.4,247.4c-170.2,0-308.7-138.5-308.7-308.7c0-170.2,138.4-308.6,308.7-308.6c81.1,0,157.8,32.7,215.2,88.6l-95.3,96.3h313.9V61l-86.6,86.2C759.8,56.5,636,5.1,505.1,5.1C232.1,5.1,10,227.1,10,499.9c0,272.9,222,494.9,494.9,494.9C739.6,994.9,943.7,828,990,598L807.3,561.2z" style="fill: rgb(255, 255, 255);"/>
  </g>
</svg>