<?xml version="1.0" encoding="utf-8"?>
<svg version="1.1" x="0px" y="0px" viewBox="0 0 932.6 980" enable-background="new 0 0 1000 1000" height="12pt" width="11.42pt" xmlns="http://www.w3.org/2000/svg">
  <path d="M 744.2 260.1 L 745.4 863.5 C 745.4 895.1 732.3 912.1 700.6 912.1 L 239.7 910.9 C 208 910.9 194 896.4 194 864.8 L 194 260.1 L 122.6 260.1 L 122.6 865 C 122.6 928.5 174.2 980 237.7 980 L 697.9 980 C 761.4 980 813 928.4 813 865 L 813 260.1 L 744.2 260.1 L 744.2 260.1 L 744.2 260.1 Z M 290.3 389.5 L 290.3 817.8 C 290.3 820.6 290.7 823.3 291.4 825.9 C 312.5 825.9 333.6 825.8 354.6 825.8 C 355.3 823.3 355.7 820.6 355.7 817.9 L 355.7 389.7 C 333.9 389.6 312.1 389.6 290.3 389.5 L 290.3 389.5 L 290.3 389.5 Z M 579.1 391.1 L 579.1 817.9 C 579.1 820.1 579.4 822.3 579.8 824.4 C 601.1 824.3 622.4 824.2 643.7 824.2 C 644.1 822.2 644.4 820.1 644.4 817.9 L 644.4 391.3 C 622.7 391.2 600.9 391.2 579.1 391.1 L 579.1 391.1 L 579.1 391.1 Z M 932.6 144.1 L 677 144.1 L 677 72 C 678.2 14 630.4 0 582.6 0 L 353 0 C 293.7 0 259.9 22.3 259.9 70 L 259.6 144.1 L 0 144.1 L 0 214.5 L 932.5 214.5 L 932.6 144.1 L 932.6 144.1 L 932.6 144.1 Z M 611.6 144.1 L 324 144.1 L 324 93.7 C 324 77.7 335.3 63.8 351.3 63.8 L 581.4 65.1 C 597.4 65.1 611.5 76.6 611.5 92.5 L 611.6 144.1 L 611.6 144.1 L 611.6 144.1 L 611.6 144.1 Z M 437 391.1 L 437 817.9 C 437 820.1 437.3 822.3 437.7 824.4 C 458.8 824.3 480 824.2 501.1 824.2 C 501.5 822.2 501.8 820.1 501.8 817.9 L 501.8 391.3 C 480.2 391.3 458.6 391.2 437 391.1 L 437 391.1 L 437 391.1 Z" style="fill: rgb(255, 255, 255);"/>
</svg>