<?xml version="1.0" encoding="utf-8"?>
<svg width="12.726pt" height="12pt" id="svg3030" version="1.1" viewBox="0 0 928 875.1" xmlns="http://www.w3.org/2000/svg">
  <path d="M 56.699 350.512 L 56.699 596.277 C 57.148 596.281 57.598 596.298 58.043 596.339 L 208.713 610.867 C 216.606 611.629 222.791 617.981 223.341 625.89 L 227.986 692.4 L 359.416 701.778 L 368.47 640.392 C 369.644 632.433 376.471 626.535 384.521 626.535 L 543.483 626.535 C 551.529 626.535 558.356 632.433 559.53 640.392 L 568.584 701.778 L 700.018 692.4 L 704.659 625.89 C 705.213 617.981 711.394 611.633 719.287 610.867 L 869.898 596.339 C 870.344 596.298 870.789 596.281 871.239 596.277 L 871.239 576.667 L 871.301 576.646 L 871.301 350.512 L 871.859 350.512 C 891.819 325.037 910.288 298.192 928 269.554 C 904.477 229.509 875.655 193.723 844.848 160.568 C 816.276 174.95 788.523 191.242 762.311 208.58 C 749.195 195.542 734.422 184.878 719.911 173.73 C 705.654 162.279 689.586 153.883 674.347 144.101 C 678.884 110.313 681.128 77.05 682.031 42.333 C 642.711 22.544 600.781 9.424 558.368 0 C 541.435 28.459 525.95 59.279 512.463 89.408 C 496.47 86.736 480.403 85.745 464.314 85.554 L 464.314 85.529 C 464.202 85.529 464.098 85.554 464.002 85.554 C 463.902 85.554 463.798 85.529 463.698 85.529 L 463.698 85.554 C 447.581 85.745 431.525 86.736 415.528 89.408 C 402.05 59.279 386.573 28.459 369.615 0 C 327.223 9.424 285.289 22.544 245.973 42.333 C 246.872 77.05 249.116 110.313 253.665 144.101 C 238.397 153.883 222.35 162.279 208.089 173.73 C 193.599 184.878 178.801 195.542 165.68 208.58 C 139.468 191.242 111.724 174.95 83.144 160.568 C 52.337 193.723 23.531 229.509 0 269.554 C 17.704 298.192 36.186 325.037 56.141 350.512 Z M 463.994 549.344 C 447.851 549.344 434.768 537.447 434.768 522.782 L 434.768 439.193 C 434.768 424.54 447.851 412.631 463.994 412.631 C 480.136 412.631 493.249 424.54 493.249 439.193 L 493.249 522.782 C 493.249 537.447 480.136 549.344 463.994 549.344 Z M 341.213 450.278 C 341.213 500.445 300.565 541.085 250.414 541.085 C 200.288 541.085 159.628 500.445 159.628 450.278 C 159.628 400.143 200.288 359.524 250.414 359.524 C 300.565 359.524 341.213 400.143 341.213 450.278 Z M 677.594 359.524 C 727.716 359.524 768.372 400.143 768.372 450.278 C 768.372 500.445 727.716 541.085 677.594 541.085 C 627.435 541.085 586.787 500.445 586.787 450.278 C 586.787 400.143 627.435 359.524 677.594 359.524 Z M 259.098 395.394 C 225.813 395.394 198.827 422.388 198.827 455.664 C 198.827 488.94 225.813 515.909 259.098 515.909 C 292.398 515.909 319.368 488.94 319.368 455.664 C 319.368 422.388 292.398 395.394 259.098 395.394 Z M 608.64 455.664 C 608.64 488.94 635.602 515.909 668.877 515.909 C 702.187 515.909 729.148 488.94 729.148 455.664 C 729.148 422.388 702.187 395.394 668.877 395.394 C 635.602 395.394 608.64 422.388 608.64 455.664 Z M 736.07 641.849 L 731.404 708.713 C 730.842 716.772 724.432 723.187 716.373 723.765 L 555.883 735.217 C 555.492 735.246 555.101 735.258 554.714 735.258 C 546.738 735.258 539.857 729.406 538.679 721.397 L 529.476 658.983 L 398.524 658.983 L 389.321 721.397 C 388.084 729.797 380.575 735.837 372.117 735.217 L 211.627 723.765 C 203.568 723.187 197.158 716.772 196.596 708.713 L 191.93 641.849 L 56.449 628.787 C 56.512 643.348 56.699 659.299 56.699 662.475 C 56.699 805.561 238.21 874.335 463.723 875.126 L 464.277 875.126 C 689.79 874.335 871.239 805.561 871.239 662.475 C 871.239 659.241 871.434 643.356 871.501 628.787 Z" style="fill-opacity: 1; fill-rule: nonzero; stroke: none; stroke-width: 0.320312; fill: rgb(255, 255, 255);" id="path84-6"/>
</svg>