<?xml version="1.0" encoding="utf-8"?>
<svg version="1.1" x="0px" y="0px" viewBox="0 0 980 980.7" enable-background="new 0 0 1000 1000" width="11pt" height="11pt" xmlns="http://www.w3.org/2000/svg">
  <g transform="matrix(1, 0, 0, 1, -10, -9.660637)">
    <g transform="translate(0.000000,512.000000) scale(0.100000,-0.100000)">
      <path d="M4624.9,5017.7c-450.8-46-798-117-1160.5-237.8C2417.1,4436.5,1529,3757.5,903.7,2823.3c-295.4-441.2-573.5-1087.6-688.6-1603.6C119.2,799.7,100,600.2,100,109.1c0-498.7,28.8-748.1,134.3-1173.9C573.8-2449.7,1527.1-3633.2,2814.2-4272c477.6-237.8,916.9-377.9,1457.8-466.1c376-59.5,1064.6-61.4,1446.3,0c544.8,86.3,982.1,224.4,1465.5,466.1c1436.7,713.6,2420.7,2065.9,2672,3671.4c55.6,358.7,59.5,1055,7.7,1390.7c-115.1,751.9-379.8,1452.1-769.2,2033.3c-494.9,742.3-1143.2,1308.2-1937.3,1699.5c-483.4,235.9-932.2,376-1467.4,458.4C5495.8,5010,4789.9,5035,4624.9,5017.7z M3502.8,3960.8c-76.7-82.5-216.8-247.4-310.7-364.5c-95.9-118.9-176.5-216.7-180.3-216.7c-19.2,0-372.1,218.7-372.1,230.2c0,15.3,347.2,222.5,498.7,297.3c113.2,57.5,460.4,201.4,485.3,201.4C3633.3,4108.5,3577.6,4041.4,3502.8,3960.8z M4672.9,3504.3v-606.1l-118.9,13.4c-318.4,32.6-897.7,166.9-897.7,205.2c0,80.6,920.7,991.7,1003.2,991.7C4667.1,4108.5,4672.9,3836.1,4672.9,3504.3z M5534.1,3960.8c356.8-289.6,868.9-836.3,803.7-859.3c-203.3-71-623.4-161.1-901.5-191.8l-111.2-11.5v604.2c0,333.8,5.7,606.1,13.4,606.1C5344.3,4108.5,5432.5,4041.4,5534.1,3960.8z M6499,4062.5c274.3-103.6,859.4-412.4,859.4-452.7c0-11.5-352.9-230.2-372.1-230.2c-3.8,0-84.4,97.8-180.3,216.7c-94,117-234,282-310.7,364.5c-74.8,80.6-132.4,147.7-126.6,147.7C6374.3,4108.5,6433.8,4087.4,6499,4062.5z M2269.4,3065c82.5-55.6,199.5-130.4,259-165c61.4-32.6,115.1-69.1,120.8-78.6c5.8-7.7-21.1-76.7-57.5-153.5c-126.6-249.4-224.4-483.4-318.4-765.3l-94-278.1l-558.2-5.8l-558.2-3.8l13.4,51.8c23,95.9,255.1,548.6,376,734.7c182.2,282,590.8,767.3,644.5,767.3C2108.3,3168.6,2187,3122.6,2269.4,3065z M8033.5,3049.7c358.7-381.7,646.4-811.4,828.7-1239.1c38.4-88.2,69-168.8,69-178.4c0-11.5-224.5-15.3-556.3-13.4l-558.2,5.8l-84.4,251.3c-94,283.9-224.5,598.5-331.9,803.7l-72.9,138.1l184.1,109.3c99.7,59.5,220.6,138.1,268.5,174.6c47.9,34.5,97.8,65.2,113.2,65.2C7908.8,3168.6,7972.1,3114.9,8033.5,3049.7z M3500.9,2470.4c276.2-90.2,598.5-159.2,911.1-197.6l260.9-32.6v-312.7v-312.7h-901.5c-496.8,0-901.5,3.8-901.5,9.6c0,3.8,38.4,109.3,86.3,234c109.3,283.9,297.3,677.1,322.3,677.1C3289.9,2535.6,3389.6,2506.8,3500.9,2470.4z M6846.2,2311.2c115.1-243.6,119-251.3,216.8-517.9l65.2-178.4h-901.5h-901.5v312.7v312.7l262.8,32.6c316.5,40.3,640.7,111.3,897.7,195.7c105.5,34.5,205.2,65.2,222.5,65.2C6729.2,2535.6,6773.3,2462.7,6846.2,2311.2z M1561.6,843.8c11.5-76.7,49.9-345.3,82.5-594.6c34.5-251.3,69.1-456.5,74.8-456.5c5.7,0,55.6,253.2,113.2,562c55.6,306.9,105.5,575.4,109.3,594.6c9.6,28.8,38.4,32.6,257,32.6c237.8,0,245.5-1.9,255.1-42.2c5.8-24.9,46-293.5,92.1-598.5c49.9-326.1,88.2-539,95.9-517.9c7.7,21.1,49.9,274.3,94,563.9c42.2,289.6,82.5,542.8,88.2,562c9.6,28.8,38.4,32.6,239.8,32.6c124.7,0,228.3-5.7,228.3-13.4c0-9.6-94-395.1-209.1-859.3l-209.1-844h-255.1h-257l-78.6,489.1c-44.1,268.5-86.3,533.2-94,585l-15.3,95.9l-13.4-67.1c-7.7-36.4-55.6-303.1-107.4-588.9l-94-523.7h-259h-259L1249,86.1c-103.6,454.6-193.7,844-197.6,863.2c-7.7,28.8,13.4,32.6,241.7,32.6h249.4L1561.6,843.8z M4375.6,939.7c5.7-24.9,44.1-299.2,86.3-610C4506,19,4542.5-238.1,4546.3-240c1.9-1.9,55.6,270.5,117,608.1l113.2,615.7l249.4-5.8l251.3-5.8l71-470c40.3-259,82.5-529.4,94-604.2l23-134.3l94,602.3c51.8,331.9,95.9,606.1,99.7,610c3.8,3.8,109.3,3.8,235.9,1.9l228.3-5.8l-211-857.4l-211-859.3h-255.1h-253.2l-11.5,63.3c-5.8,32.6-49.9,295.4-94,579.3c-46,285.8-88.2,504.5-94,489.1c-5.8-15.3-49.9-257-99.8-537.1c-49.9-280-94-527.5-99.7-550.5c-9.6-42.2-15.3-44.1-264.7-44.1c-228.3,0-257,3.8-266.6,34.5c-5.8,17.3-84.4,356.8-174.6,751.9c-92.1,395.2-176.5,769.2-191.8,830.6l-24.9,109.3h247.4C4358.3,981.9,4366,980,4375.6,939.7z M7283.5,375.8c49.9-356.8,90.1-590.8,97.8-569.7c7.7,19.2,57.5,276.2,111.3,571.6c53.7,295.4,101.6,552.4,107.4,571.6c9.6,28.8,38.4,32.6,255.1,32.6h247.4l9.6-51.8c3.9-30.7,46.1-303.1,92.1-606.1c46-303.1,86.3-542.8,90.1-531.3c3.9,11.5,47.9,282,95.9,600.4l90.2,579.3l235.9,5.8c128.5,1.9,234,1.9,234-1.9c0-9.6-376-1544.1-404.7-1647.7l-19.2-72.9h-255.1h-253.2l-92.1,581.2c-49.9,318.4-94,581.2-95.9,583.1c-1.9,3.8-51.8-255.1-109.3-575.4l-103.6-579.3l-260.9-5.7l-258.9-5.8l-195.7,851.7c-107.4,466.1-195.6,855.5-195.6,863.2c0,7.7,111.2,13.4,247.5,13.4h245.5L7283.5,375.8z M2265.6-1636.4c101.7-312.7,211-573.5,354.9-845.9l113.2-214.8l-109.3-57.5c-59.5-32.6-182.2-105.5-270.5-163l-163-105.5l-86.3,76.7c-230.2,201.4-535.2,581.2-734.7,916.9c-111.3,186.1-303.1,587-303.1,633c0,13.4,174.6,17.3,558.2,15.3l558.2-5.7L2265.6-1636.4z M4672.9-1770.7v-393.2h-80.6c-218.7-1.9-771.1-109.3-1078-209.1c-159.2-51.8-174.6-53.7-197.6-25c-80.6,107.4-399,809.5-439.3,968.7l-11.5,51.8h903.5h903.5V-1770.7z M7128.2-1394.7c0-34.5-120.9-358.7-199.5-539c-67.1-151.5-182.2-362.5-257-475.7c-11.5-17.3-53.7-9.6-184.1,34.5c-293.5,97.8-865.1,211-1076.1,211h-86.3v393.2v393.2h901.5C6763.7-1377.5,7128.2-1385.1,7128.2-1394.7z M8931.2-1394.7c0-42.2-159.2-379.8-268.5-575.4c-189.9-333.8-506.4-734.7-769.2-974.4l-86.3-80.6l-115.1,76.7c-61.4,42.2-184.2,115.1-270.5,165l-157.3,88.2l113.2,212.9c172.6,329.9,249.4,517.9,431.6,1081.8C7818.7-1371.7,8931.2-1365.9,8931.2-1394.7z M4672.9-3343.6c0-289.6-7.7-527.5-15.3-527.5c-78.6,0-951.4,857.4-901.5,884.3c84.4,47.9,667.5,165,836.3,168.8l80.6,1.9V-3343.6z M5679.9-2854.4c228.3-36.5,510.2-103.6,562-132.4c49.9-28.8-822.9-884.3-901.5-884.3c-7.7,0-15.3,237.9-15.3,527.5v527.5h63.3C5421-2816.1,5553.3-2833.3,5679.9-2854.4z M3259.2-3441.4c78.6-97.8,197.6-232.1,262.8-303.1c65.2-69,113.2-126.6,107.4-126.6c-36.4,0-429.7,168.8-577.4,247.5c-260.9,140-297.3,163-291.6,182.2c7.7,24.9,306.9,186,331.8,180.3C3103.8-3264.9,3178.7-3345.5,3259.2-3441.4z M7080.2-3341.7c82.5-46,153.5-90.1,157.3-99.7c5.8-19.2-322.2-207.2-502.5-285.8c-118.9-53.7-352.9-143.9-368.3-143.9c-5.7,0,53.7,67.1,128.5,149.6c74.8,80.6,195.6,218.7,264.7,305c71,88.2,138.1,159.2,147.7,159.2C6919.1-3257.3,6995.8-3295.6,7080.2-3341.7z" style="fill: rgb(255, 255, 255);"/>
    </g>
  </g>
</svg>